<?xml version="1.0" encoding="UTF-8" standalone="no"?><svg xmlns="http://www.w3.org/2000/svg" xmlns:xlink="http://www.w3.org/1999/xlink" contentScriptType="application/ecmascript" contentStyleType="text/css" height="1584.375px" preserveAspectRatio="none" style="width:2215px;height:1584px;background:#FFFFFF;" version="1.1" viewBox="0 0 2215 1584" width="2215.625px" zoomAndPan="magnify"><defs><filter height="300%" id="f8z8okolrfnkx" width="300%" x="-1" y="-1"><feGaussianBlur result="blurOut" stdDeviation="6.25"/><feColorMatrix in="blurOut" result="blurOut2" type="matrix" values="0 0 0 0 0 0 0 0 0 0 0 0 0 0 0 0 0 0 .4 0"/><feOffset dx="12.5" dy="12.5" in="blurOut2" result="blurOut3"/><feBlend in="SourceGraphic" in2="blurOut3" mode="normal"/></filter></defs><g><rect fill="#FFFFFF" filter="url(#f8z8okolrfnkx)" height="1185.9863" style="stroke:#A80036;stroke-width:3.125;" width="31.25" x="84.375" y="231.1279"/><rect fill="#FFFFFF" filter="url(#f8z8okolrfnkx)" height="1157.8613" style="stroke:#A80036;stroke-width:3.125;" width="31.25" x="496.875" y="231.1279"/><rect fill="#FFFFFF" filter="url(#f8z8okolrfnkx)" height="501.2695" style="stroke:#A80036;stroke-width:3.125;" width="31.25" x="859.375" y="325.9766"/><rect fill="#FFFFFF" filter="url(#f8z8okolrfnkx)" height="277.1973" style="stroke:#A80036;stroke-width:3.125;" width="31.25" x="1712.5" y="1016.9434"/><rect fill="#FFFFFF" filter="url(#f8z8okolrfnkx)" height="138.5986" style="stroke:#A80036;stroke-width:3.125;" width="31.25" x="2028.125" y="1111.792"/><line style="stroke:#A80036;stroke-width:3.125;stroke-dasharray:5.0,5.0;" x1="100" x2="100" y1="130.0293" y2="1445.2393"/><line style="stroke:#A80036;stroke-width:3.125;stroke-dasharray:5.0,5.0;" x1="512.5" x2="512.5" y1="130.0293" y2="1445.2393"/><line style="stroke:#A80036;stroke-width:3.125;stroke-dasharray:5.0,5.0;" x1="875" x2="875" y1="130.0293" y2="1445.2393"/><line style="stroke:#A80036;stroke-width:3.125;stroke-dasharray:5.0,5.0;" x1="1728.125" x2="1728.125" y1="130.0293" y2="1445.2393"/><line style="stroke:#A80036;stroke-width:3.125;stroke-dasharray:5.0,5.0;" x1="2043.75" x2="2043.75" y1="130.0293" y2="1445.2393"/><rect fill="#FEFECE" filter="url(#f8z8okolrfnkx)" height="98.7793" style="stroke:#A80036;stroke-width:4.6875;" width="156.25" x="15.625" y="15.625"/><text fill="#000000" font-family="sans-serif" font-size="43.75" lengthAdjust="spacing" textLength="112.5" x="37.5" y="82.9163">Client</text><rect fill="#FEFECE" filter="url(#f8z8okolrfnkx)" height="98.7793" style="stroke:#A80036;stroke-width:4.6875;" width="156.25" x="15.625" y="1442.1143"/><text fill="#000000" font-family="sans-serif" font-size="43.75" lengthAdjust="spacing" textLength="112.5" x="37.5" y="1509.4055">Client</text><rect fill="#FEFECE" filter="url(#f8z8okolrfnkx)" height="98.7793" style="stroke:#A80036;stroke-width:4.6875;" width="293.75" x="359.375" y="15.625"/><text fill="#000000" font-family="sans-serif" font-size="43.75" lengthAdjust="spacing" textLength="250" x="381.25" y="82.9163">GameServer</text><rect fill="#FEFECE" filter="url(#f8z8okolrfnkx)" height="98.7793" style="stroke:#A80036;stroke-width:4.6875;" width="293.75" x="359.375" y="1442.1143"/><text fill="#000000" font-family="sans-serif" font-size="43.75" lengthAdjust="spacing" textLength="250" x="381.25" y="1509.4055">GameServer</text><rect fill="#FEFECE" filter="url(#f8z8okolrfnkx)" height="98.7793" style="stroke:#A80036;stroke-width:4.6875;" width="293.75" x="721.875" y="15.625"/><text fill="#000000" font-family="sans-serif" font-size="43.75" lengthAdjust="spacing" textLength="250" x="743.75" y="82.9163">ChooseCard</text><rect fill="#FEFECE" filter="url(#f8z8okolrfnkx)" height="98.7793" style="stroke:#A80036;stroke-width:4.6875;" width="293.75" x="721.875" y="1442.1143"/><text fill="#000000" font-family="sans-serif" font-size="43.75" lengthAdjust="spacing" textLength="250" x="743.75" y="1509.4055">ChooseCard</text><rect fill="#FEFECE" filter="url(#f8z8okolrfnkx)" height="98.7793" style="stroke:#A80036;stroke-width:4.6875;" width="275" x="1584.375" y="15.625"/><text fill="#000000" font-family="sans-serif" font-size="43.75" lengthAdjust="spacing" textLength="231.25" x="1606.25" y="82.9163">GameTimer</text><rect fill="#FEFECE" filter="url(#f8z8okolrfnkx)" height="98.7793" style="stroke:#A80036;stroke-width:4.6875;" width="275" x="1584.375" y="1442.1143"/><text fill="#000000" font-family="sans-serif" font-size="43.75" lengthAdjust="spacing" textLength="231.25" x="1606.25" y="1509.4055">GameTimer</text><rect fill="#FEFECE" filter="url(#f8z8okolrfnkx)" height="98.7793" style="stroke:#A80036;stroke-width:4.6875;" width="268.75" x="1903.125" y="15.625"/><text fill="#000000" font-family="sans-serif" font-size="43.75" lengthAdjust="spacing" textLength="225" x="1925" y="82.9163">WebSocket</text><rect fill="#FEFECE" filter="url(#f8z8okolrfnkx)" height="98.7793" style="stroke:#A80036;stroke-width:4.6875;" width="268.75" x="1903.125" y="1442.1143"/><text fill="#000000" font-family="sans-serif" font-size="43.75" lengthAdjust="spacing" textLength="225" x="1925" y="1509.4055">WebSocket</text><rect fill="#FFFFFF" filter="url(#f8z8okolrfnkx)" height="1185.9863" style="stroke:#A80036;stroke-width:3.125;" width="31.25" x="84.375" y="231.1279"/><rect fill="#FFFFFF" filter="url(#f8z8okolrfnkx)" height="1157.8613" style="stroke:#A80036;stroke-width:3.125;" width="31.25" x="496.875" y="231.1279"/><rect fill="#FFFFFF" filter="url(#f8z8okolrfnkx)" height="501.2695" style="stroke:#A80036;stroke-width:3.125;" width="31.25" x="859.375" y="325.9766"/><rect fill="#FFFFFF" filter="url(#f8z8okolrfnkx)" height="277.1973" style="stroke:#A80036;stroke-width:3.125;" width="31.25" x="1712.5" y="1016.9434"/><rect fill="#FFFFFF" filter="url(#f8z8okolrfnkx)" height="138.5986" style="stroke:#A80036;stroke-width:3.125;" width="31.25" x="2028.125" y="1111.792"/><polygon fill="#A80036" points="459.375,218.6279,490.625,231.1279,459.375,243.6279,471.875,231.1279" style="stroke:#A80036;stroke-width:3.125;"/><line style="stroke:#A80036;stroke-width:3.125;" x1="115.625" x2="478.125" y1="231.1279" y2="231.1279"/><text fill="#000000" font-family="sans-serif" font-size="40.625" lengthAdjust="spacing" textLength="337.5" x="137.5" y="215.9515">POST chooseCard</text><polygon fill="#A80036" points="821.875,313.4766,853.125,325.9766,821.875,338.4766,834.375,325.9766" style="stroke:#A80036;stroke-width:3.125;"/><line style="stroke:#A80036;stroke-width:3.125;" x1="528.125" x2="840.625" y1="325.9766" y2="325.9766"/><text fill="#000000" font-family="sans-serif" font-size="40.625" lengthAdjust="spacing" textLength="250" x="550" y="310.8002">performAction</text><line style="stroke:#A80036;stroke-width:3.125;" x1="890.625" x2="1021.875" y1="420.8252" y2="420.8252"/><line style="stroke:#A80036;stroke-width:3.125;" x1="1021.875" x2="1021.875" y1="420.8252" y2="461.4502"/><line style="stroke:#A80036;stroke-width:3.125;" x1="893.75" x2="1021.875" y1="461.4502" y2="461.4502"/><polygon fill="#A80036" points="925,448.9502,893.75,461.4502,925,473.9502,912.5,461.4502" style="stroke:#A80036;stroke-width:3.125;"/><text fill="#000000" font-family="sans-serif" font-size="40.625" lengthAdjust="spacing" textLength="778.125" x="912.5" y="405.6488">gather necessary data (game, player, card)</text><line style="stroke:#A80036;stroke-width:3.125;" x1="890.625" x2="1021.875" y1="556.2988" y2="556.2988"/><line style="stroke:#A80036;stroke-width:3.125;" x1="1021.875" x2="1021.875" y1="556.2988" y2="596.9238"/><line style="stroke:#A80036;stroke-width:3.125;" x1="893.75" x2="1021.875" y1="596.9238" y2="596.9238"/><polygon fill="#A80036" points="925,584.4238,893.75,596.9238,925,609.4238,912.5,596.9238" style="stroke:#A80036;stroke-width:3.125;"/><text fill="#000000" font-family="sans-serif" font-size="40.625" lengthAdjust="spacing" textLength="134.375" x="912.5" y="541.1224">validate</text><line style="stroke:#A80036;stroke-width:3.125;" x1="890.625" x2="1021.875" y1="691.7725" y2="691.7725"/><line style="stroke:#A80036;stroke-width:3.125;" x1="1021.875" x2="1021.875" y1="691.7725" y2="732.3975"/><line style="stroke:#A80036;stroke-width:3.125;" x1="893.75" x2="1021.875" y1="732.3975" y2="732.3975"/><polygon fill="#A80036" points="925,719.8975,893.75,732.3975,925,744.8975,912.5,732.3975" style="stroke:#A80036;stroke-width:3.125;"/><text fill="#000000" font-family="sans-serif" font-size="40.625" lengthAdjust="spacing" textLength="231.25" x="912.5" y="676.5961">updateGame</text><polygon fill="#A80036" points="562.5,814.7461,531.25,827.2461,562.5,839.7461,550,827.2461" style="stroke:#A80036;stroke-width:3.125;"/><line style="stroke:#A80036;stroke-width:3.125;stroke-dasharray:2.0,2.0;" x1="543.75" x2="871.875" y1="827.2461" y2="827.2461"/><text fill="#000000" font-family="sans-serif" font-size="40.625" lengthAdjust="spacing" textLength="256.25" x="581.25" y="812.0697">updated game</text><polygon fill="#A80036" points="1690.625,909.5947,1721.875,922.0947,1690.625,934.5947,1703.125,922.0947" style="stroke:#A80036;stroke-width:3.125;"/><line style="stroke:#A80036;stroke-width:3.125;" x1="528.125" x2="1709.375" y1="922.0947" y2="922.0947"/><text fill="#000000" font-family="sans-serif" font-size="40.625" lengthAdjust="spacing" textLength="371.875" x="550" y="906.9183">cancelPreviousTimer</text><polygon fill="#A80036" points="1675,1004.4434,1706.25,1016.9434,1675,1029.4434,1687.5,1016.9434" style="stroke:#A80036;stroke-width:3.125;"/><line style="stroke:#A80036;stroke-width:3.125;" x1="528.125" x2="1693.75" y1="1016.9434" y2="1016.9434"/><text fill="#000000" font-family="sans-serif" font-size="40.625" lengthAdjust="spacing" textLength="362.5" x="550" y="1001.767">setTimerAndPublish</text><polygon fill="#A80036" points="1990.625,1099.292,2021.875,1111.792,1990.625,1124.292,2003.125,1111.792" style="stroke:#A80036;stroke-width:3.125;"/><line style="stroke:#A80036;stroke-width:3.125;" x1="1743.75" x2="2009.375" y1="1111.792" y2="1111.792"/><text fill="#000000" font-family="sans-serif" font-size="40.625" lengthAdjust="spacing" textLength="128.125" x="1765.625" y="1096.6156">publish</text><polygon fill="#A80036" points="150,1194.1406,118.75,1206.6406,150,1219.1406,137.5,1206.6406" style="stroke:#A80036;stroke-width:3.125;"/><line style="stroke:#A80036;stroke-width:3.125;stroke-dasharray:2.0,2.0;" x1="131.25" x2="2025" y1="1206.6406" y2="1206.6406"/><text fill="#000000" font-family="sans-serif" font-size="40.625" lengthAdjust="spacing" textLength="109.375" x="168.75" y="1191.4642">Game</text><polygon fill="#A80036" points="1778.125,1237.8906,1746.875,1250.3906,1778.125,1262.8906,1765.625,1250.3906" style="stroke:#A80036;stroke-width:3.125;"/><line style="stroke:#A80036;stroke-width:3.125;stroke-dasharray:2.0,2.0;" x1="1759.375" x2="2040.625" y1="1250.3906" y2="1250.3906"/><polygon fill="#A80036" points="562.5,1281.6406,531.25,1294.1406,562.5,1306.6406,550,1294.1406" style="stroke:#A80036;stroke-width:3.125;"/><line style="stroke:#A80036;stroke-width:3.125;stroke-dasharray:2.0,2.0;" x1="543.75" x2="1725" y1="1294.1406" y2="1294.1406"/><polygon fill="#A80036" points="150,1376.4893,118.75,1388.9893,150,1401.4893,137.5,1388.9893" style="stroke:#A80036;stroke-width:3.125;"/><line style="stroke:#A80036;stroke-width:3.125;stroke-dasharray:2.0,2.0;" x1="131.25" x2="509.375" y1="1388.9893" y2="1388.9893"/><text fill="#000000" font-family="sans-serif" font-size="40.625" lengthAdjust="spacing" textLength="171.875" x="168.75" y="1373.8129">Accepted</text><!--MD5=[f25b8376614344db27846a05dc73ce92]
@startuml ClassDiagram
skinparam dpi 300

Client -> GameServer: POST chooseCard
activate Client
activate GameServer
GameServer -> ChooseCard : performAction
activate ChooseCard
ChooseCard -> ChooseCard: gather necessary data (game, player, card)
ChooseCard -> ChooseCard: validate
ChooseCard -> ChooseCard: updateGame
GameServer <- - ChooseCard: updated game
deactivate ChooseCard
GameServer -> GameTimer: cancelPreviousTimer
GameServer -> GameTimer: setTimerAndPublish
activate GameTimer
GameTimer -> WebSocket: publish
activate WebSocket
Client <- - WebSocket: Game
GameTimer <- - WebSocket
deactivate WebSocket
GameServer <- - GameTimer
deactivate GameTimer
Client <- - GameServer: Accepted
deactivate GameServer

@enduml

PlantUML version 1.2021.7(Sun May 23 15:40:07 EEST 2021)
(GPL source distribution)
Java Runtime: Java(TM) SE Runtime Environment
JVM: Java HotSpot(TM) 64-Bit Server VM
Default Encoding: Cp1251
Language: en
Country: US
--></g></svg>